<?xml version="1.0" standalone="no"?>
<!DOCTYPE svg PUBLIC "-//W3C//DTD SVG 20010904//EN"
 "http://www.w3.org/TR/2001/REC-SVG-20010904/DTD/svg10.dtd">
<svg version="1.0" xmlns="http://www.w3.org/2000/svg"
 width="1024.000000pt" height="1024.000000pt" viewBox="0 0 1024.000000 1024.000000"
 preserveAspectRatio="xMidYMid meet">
<metadata>
Created by potrace 1.14, written by Peter Selinger 2001-2017
</metadata>
<g transform="translate(0.000000,1024.000000) scale(0.100000,-0.100000)"
fill="#000000" stroke="none">
<path d="M2170 9550 l0 -690 230 0 230 0 0 230 0 230 210 0 210 0 0 -230 0
-230 230 0 230 0 0 690 0 690 -230 0 -230 0 0 -230 0 -230 -210 0 -210 0 0
230 0 230 -230 0 -230 0 0 -690z"/>
<path d="M3710 10010 l0 -230 205 0 205 0 0 -460 0 -460 230 0 230 0 0 460 0
460 205 0 205 0 0 230 0 230 -640 0 -640 0 0 -230z"/>
<path d="M5190 9550 l0 -690 225 0 225 0 2 340 3 340 159 -246 159 -245 19 28
c10 15 82 127 161 247 l142 219 3 -341 2 -342 230 0 230 0 0 690 0 690 -243 0
-244 0 -142 -235 c-78 -129 -146 -237 -150 -239 -4 -3 -72 103 -152 234 l-144
239 -242 1 -243 0 0 -690z"/>
<path d="M6970 9550 l0 -690 560 0 560 0 -2 228 -3 227 -327 3 -328 2 0 460 0
460 -230 0 -230 0 0 -690z"/>
<path d="M1500 8208 c-2 -41 654 -7374 660 -7381 10 -11 2932 -819 2960 -818
14 1 686 185 1495 409 l1470 408 327 3665 c180 2015 327 3679 327 3697 l1 32
-3620 0 c-2889 0 -3620 -3 -3620 -12z m5896 -1520 c-3 -18 -22 -211 -41 -428
-19 -217 -38 -410 -41 -427 l-5 -33 -1734 0 c-954 0 -1735 -2 -1735 -4 0 -2
18 -201 40 -441 22 -240 40 -445 40 -456 0 -19 33 -19 1655 -19 910 0 1655 -4
1655 -8 0 -25 -250 -2785 -252 -2787 -6 -6 -1849 -515 -1863 -515 -20 0 -1849
511 -1857 519 -6 6 -128 1335 -128 1399 l0 32 455 0 455 0 4 -22 c3 -13 18
-173 33 -356 15 -183 30 -338 34 -344 3 -5 231 -70 505 -143 l499 -134 505
136 506 135 52 581 c28 319 50 582 49 584 -2 1 -710 6 -1573 9 l-1570 7 -122
1361 c-68 749 -123 1367 -122 1374 0 9 463 12 2280 12 l2281 0 -5 -32z"/>
</g>
</svg>
